<svg width="333" height="332" viewBox="0 0 333 332" fill="none" xmlns="http://www.w3.org/2000/svg">
<rect width="331" height="331" rx="39" fill="#F2F2F2"/>
<path fill-rule="evenodd" clip-rule="evenodd" d="M332 161.842V289C332 312.196 313.196 331 290 331H43C19.804 331 1 312.196 1 289V221.053L14.7571 210.755L62.0254 230.755L125.735 182.755C130.53 178.588 142.69 172.755 152.965 182.755C163.241 192.755 180.881 210.588 188.417 218.255C194.925 226.755 211.229 238.655 224.382 218.255C237.535 197.855 255.894 168.755 263.429 156.755C265.313 153.921 271.856 149.955 282.953 156.755C294.051 163.555 307.786 173.255 313.267 177.255L326.625 165.255C327.203 163.454 328.921 161.168 332 161.842Z" fill="#513D69"/>
<path d="M332 161.842H332.5V161.439L332.107 161.353L332 161.842ZM1 221.053L0.700361 220.653L0.5 220.803V221.053H1ZM14.7571 210.755L14.952 210.294L14.6874 210.182L14.4575 210.354L14.7571 210.755ZM62.0254 230.755L61.8306 231.215L62.0961 231.327L62.3263 231.154L62.0254 230.755ZM125.735 182.755L126.036 183.154L126.05 183.143L126.063 183.132L125.735 182.755ZM152.965 182.755L152.617 183.113L152.617 183.113L152.965 182.755ZM188.417 218.255L188.814 217.951L188.795 217.926L188.773 217.904L188.417 218.255ZM224.382 218.255L224.802 218.526L224.802 218.526L224.382 218.255ZM263.429 156.755L263.013 156.478L263.006 156.489L263.429 156.755ZM282.953 156.755L283.215 156.328L283.215 156.328L282.953 156.755ZM313.267 177.255L312.972 177.659L313.299 177.897L313.601 177.627L313.267 177.255ZM326.625 165.255L326.959 165.627L327.06 165.536L327.101 165.408L326.625 165.255ZM331.5 161.842V289H332.5V161.842H331.5ZM331.5 289C331.5 311.92 312.92 330.5 290 330.5V331.5C313.472 331.5 332.5 312.472 332.5 289H331.5ZM290 330.5H43V331.5H290V330.5ZM43 330.5C20.0802 330.5 1.5 311.92 1.5 289H0.5C0.5 312.472 19.5279 331.5 43 331.5V330.5ZM1.5 289V221.053H0.5V289H1.5ZM14.4575 210.354L0.700361 220.653L1.29964 221.453L15.0568 211.155L14.4575 210.354ZM62.2202 230.294L14.952 210.294L14.5623 211.215L61.8306 231.215L62.2202 230.294ZM125.434 182.355L61.7245 230.355L62.3263 231.154L126.036 183.154L125.434 182.355ZM153.314 182.396C148.053 177.276 142.283 176.198 137.222 176.948C132.185 177.693 127.861 180.245 125.407 182.377L126.063 183.132C128.404 181.098 132.557 178.649 137.368 177.937C142.155 177.228 147.602 178.233 152.617 183.113L153.314 182.396ZM188.773 217.904C181.238 210.238 163.594 192.401 153.314 182.396L152.617 183.113C162.888 193.109 180.524 210.938 188.06 218.605L188.773 217.904ZM223.962 217.984C220.71 223.027 217.29 226.032 213.917 227.603C210.55 229.171 207.19 229.327 204.018 228.605C197.645 227.153 192.032 222.154 188.814 217.951L188.02 218.559C191.309 222.855 197.103 228.056 203.796 229.58C207.158 230.345 210.747 230.182 214.34 228.509C217.926 226.839 221.477 223.682 224.802 218.526L223.962 217.984ZM263.006 156.489C255.471 168.488 237.113 197.586 223.962 217.984L224.802 218.526C237.957 198.123 256.317 169.021 263.853 157.021L263.006 156.489ZM283.215 156.328C277.591 152.883 273.063 152.13 269.661 152.648C266.267 153.164 264.035 154.941 263.013 156.478L263.846 157.031C264.708 155.735 266.689 154.112 269.811 153.636C272.926 153.162 277.218 153.827 282.692 157.181L283.215 156.328ZM313.561 176.851C308.077 172.848 294.329 163.139 283.215 156.328L282.692 157.181C293.773 163.971 307.496 173.662 312.972 177.659L313.561 176.851ZM326.291 164.883L312.933 176.883L313.601 177.627L326.959 165.627L326.291 164.883ZM332.107 161.353C330.413 160.982 329.06 161.428 328.062 162.231C327.08 163.019 326.46 164.134 326.149 165.102L327.101 165.408C327.368 164.575 327.896 163.646 328.688 163.01C329.462 162.388 330.508 162.027 331.893 162.33L332.107 161.353Z" fill="black"/>
<path fill-rule="evenodd" clip-rule="evenodd" d="M1 232.505V195.86L11.8271 187.755L59.0954 207.755L122.805 159.755C127.6 155.588 139.76 149.755 150.036 159.755C160.311 169.755 177.951 187.588 185.487 195.255C191.995 203.755 208.299 215.655 221.452 195.255C234.605 174.855 252.964 145.755 260.499 133.755C262.383 130.921 268.926 126.955 280.023 133.755C291.121 140.555 304.856 150.255 310.337 154.255L323.695 142.255C324.436 139.947 327.049 136.841 332 140.192V171.367C330.913 172.073 330.226 173.241 329.9 174.255L316.542 186.255C311.061 182.255 297.326 172.555 286.229 165.755C275.131 158.955 268.589 162.921 266.705 165.755C259.169 177.755 240.81 206.855 227.657 227.255C214.504 247.655 198.2 235.755 191.692 227.255C184.156 219.588 166.516 201.755 156.241 191.755C145.965 181.755 133.805 187.588 129.01 191.755L65.3006 239.755L18.0323 219.755L1 232.505Z" fill="#1B003B"/>
<path d="M1 232.505H0.5V233.504L1.29964 232.905L1 232.505ZM1 195.86L0.700361 195.459L0.5 195.609V195.86H1ZM11.8271 187.755L12.022 187.294L11.7575 187.182L11.5275 187.354L11.8271 187.755ZM59.0954 207.755L58.9006 208.215L59.1661 208.327L59.3963 208.154L59.0954 207.755ZM122.805 159.755L123.106 160.154L123.12 160.143L123.133 160.132L122.805 159.755ZM150.036 159.755L149.687 160.113L149.687 160.113L150.036 159.755ZM185.487 195.255L185.884 194.951L185.865 194.926L185.843 194.904L185.487 195.255ZM221.452 195.255L221.872 195.526L221.872 195.526L221.452 195.255ZM260.499 133.755L260.083 133.478L260.076 133.489L260.499 133.755ZM280.023 133.755L280.285 133.328L280.285 133.328L280.023 133.755ZM310.337 154.255L310.042 154.658L310.369 154.897L310.671 154.627L310.337 154.255ZM323.695 142.255L324.029 142.627L324.13 142.536L324.171 142.407L323.695 142.255ZM332 140.192H332.5V139.927L332.28 139.778L332 140.192ZM332 171.367L332.272 171.786L332.5 171.638V171.367H332ZM329.9 174.255L330.234 174.627L330.335 174.536L330.376 174.407L329.9 174.255ZM316.542 186.255L316.247 186.658L316.574 186.897L316.876 186.627L316.542 186.255ZM286.229 165.755L286.49 165.328L286.49 165.328L286.229 165.755ZM266.705 165.755L266.288 165.478L266.281 165.489L266.705 165.755ZM227.657 227.255L228.077 227.526L228.077 227.526L227.657 227.255ZM191.692 227.255L192.089 226.951L192.07 226.926L192.049 226.904L191.692 227.255ZM156.241 191.755L156.589 191.396L156.589 191.396L156.241 191.755ZM129.01 191.755L129.311 192.154L129.325 192.143L129.338 192.132L129.01 191.755ZM65.3006 239.755L65.1058 240.215L65.3713 240.327L65.6015 240.154L65.3006 239.755ZM18.0323 219.755L18.2272 219.294L17.9626 219.182L17.7327 219.354L18.0323 219.755ZM1.5 232.505V195.86H0.5V232.505H1.5ZM1.29964 196.26L12.1268 188.155L11.5275 187.354L0.700361 195.459L1.29964 196.26ZM11.6323 188.215L58.9006 208.215L59.2903 207.294L12.022 187.294L11.6323 188.215ZM59.3963 208.154L123.106 160.154L122.504 159.355L58.7946 207.355L59.3963 208.154ZM123.133 160.132C125.474 158.098 129.627 155.649 134.438 154.937C139.225 154.228 144.672 155.233 149.687 160.113L150.384 159.396C145.123 154.276 139.353 153.198 134.292 153.948C129.255 154.693 124.931 157.245 122.477 159.377L123.133 160.132ZM149.687 160.113C159.958 170.109 177.595 187.938 185.13 195.605L185.843 194.904C178.308 187.238 160.664 169.401 150.384 159.396L149.687 160.113ZM185.09 195.559C188.379 199.855 194.173 205.056 200.866 206.58C204.228 207.345 207.817 207.182 211.41 205.509C214.996 203.839 218.547 200.682 221.872 195.526L221.032 194.984C217.78 200.027 214.36 203.032 210.987 204.603C207.62 206.171 204.26 206.327 201.088 205.605C194.715 204.153 189.102 199.154 185.884 194.951L185.09 195.559ZM221.872 195.526C235.027 175.123 253.387 146.021 260.923 134.021L260.076 133.489C252.541 145.488 234.183 174.586 221.032 194.984L221.872 195.526ZM260.916 134.031C261.778 132.735 263.759 131.112 266.881 130.636C269.996 130.162 274.288 130.827 279.762 134.181L280.285 133.328C274.661 129.883 270.133 129.13 266.731 129.648C263.337 130.164 261.105 131.941 260.083 133.478L260.916 134.031ZM279.762 134.181C290.843 140.971 304.566 150.662 310.042 154.658L310.631 153.851C305.147 149.848 291.399 140.139 280.285 133.328L279.762 134.181ZM310.671 154.627L324.029 142.627L323.361 141.883L310.003 153.883L310.671 154.627ZM324.171 142.407C324.517 141.332 325.286 140.12 326.483 139.553C327.64 139.006 329.341 138.996 331.72 140.606L332.28 139.778C329.708 138.037 327.627 137.905 326.055 138.65C324.522 139.375 323.615 140.87 323.219 142.102L324.171 142.407ZM331.5 140.192V171.367H332.5V140.192H331.5ZM331.728 170.947C330.516 171.735 329.773 173.015 329.424 174.102L330.376 174.407C330.678 173.467 331.309 172.412 332.272 171.786L331.728 170.947ZM329.566 173.883L316.208 185.883L316.876 186.627L330.234 174.627L329.566 173.883ZM316.837 185.851C311.352 181.848 297.604 172.139 286.49 165.328L285.967 166.181C297.048 172.971 310.771 182.662 316.247 186.658L316.837 185.851ZM286.49 165.328C280.866 161.883 276.338 161.13 272.936 161.648C269.542 162.164 267.31 163.941 266.288 165.478L267.121 166.031C267.983 164.735 269.964 163.112 273.087 162.636C276.201 162.162 280.493 162.827 285.967 166.181L286.49 165.328ZM266.281 165.489C258.746 177.488 240.388 206.586 227.237 226.984L228.077 227.526C241.232 207.123 259.592 178.021 267.128 166.021L266.281 165.489ZM227.237 226.984C223.985 232.027 220.566 235.032 217.193 236.603C213.825 238.171 210.466 238.327 207.294 237.605C200.92 236.153 195.307 231.154 192.089 226.951L191.295 227.559C194.585 231.855 200.378 237.056 207.072 238.58C210.433 239.345 214.023 239.182 217.615 237.509C221.202 235.839 224.752 232.682 228.077 227.526L227.237 226.984ZM192.049 226.904C184.513 219.238 166.87 201.401 156.589 191.396L155.892 192.113C166.163 202.109 183.8 219.938 191.335 227.605L192.049 226.904ZM156.589 191.396C151.328 186.276 145.558 185.198 140.497 185.948C135.461 186.693 131.136 189.245 128.682 191.377L129.338 192.132C131.679 190.098 135.832 187.649 140.643 186.937C145.43 186.228 150.877 187.233 155.892 192.113L156.589 191.396ZM128.709 191.355L64.9998 239.355L65.6015 240.154L129.311 192.154L128.709 191.355ZM65.4955 239.294L18.2272 219.294L17.8375 220.215L65.1058 240.215L65.4955 239.294ZM17.7327 219.354L0.700361 232.105L1.29964 232.905L18.332 220.155L17.7327 219.354Z" fill="black"/>
</svg>
